<svg width="27" height="27" viewBox="0 0 27 27" fill="none" xmlns="http://www.w3.org/2000/svg">
<path d="M24.686 15.3179C24.3479 17.4394 23.4165 19.4203 22.0014 21.0315C21.4118 19.9042 20.6036 18.9056 19.6235 18.0945C18.6651 17.3013 17.562 16.7036 16.3764 16.3343C17.3425 15.7379 18.1024 14.8551 18.5487 13.8057C19.0254 12.6851 19.1176 11.4377 18.811 10.2589C18.5043 9.08009 17.8161 8.03648 16.8541 7.29156C15.8921 6.54665 14.7107 6.14251 13.4949 6.14251C12.2791 6.14251 11.0976 6.54665 10.1356 7.29156C9.17365 8.03648 8.48545 9.08009 8.17881 10.2589C7.87217 11.4377 7.9644 12.6851 8.44107 13.8057C8.88742 14.8551 9.64729 15.7379 10.6134 16.3342C9.42741 16.7036 8.32401 17.3016 7.36553 18.0953C6.38529 18.907 5.57716 19.9064 4.98809 21.0345C3.15898 18.9661 2.15244 16.2936 2.16385 13.5265V13.5261C2.16385 10.5132 3.35826 7.62371 5.48427 5.49331C7.61024 3.36293 10.4936 2.16613 13.5001 2.16611C15.6924 2.16777 17.8371 2.80636 19.6746 4.00456C21.5121 5.20277 22.9635 6.90918 23.853 8.91714C24.7425 10.9251 25.0318 13.1484 24.686 15.3179ZM16.4876 14.6519C15.6947 15.445 14.6204 15.8907 13.5001 15.8914C12.6633 15.8913 11.8452 15.6426 11.1495 15.1765C10.4537 14.7104 9.91156 14.0479 9.59162 13.2729C9.27167 12.4979 9.18836 11.6452 9.35221 10.8227C9.51607 10.0002 9.91974 9.2449 10.5121 8.65241C11.1044 8.05993 11.8588 7.65688 12.6798 7.49422C13.5008 7.33156 14.3515 7.41661 15.1242 7.73861C15.897 8.06061 16.5571 8.60509 17.021 9.30319C17.4848 10.0013 17.7316 10.8216 17.7301 11.6603C17.7273 12.783 17.2805 13.8588 16.4876 14.6519ZM26.1004 13.5261C26.1004 11.4416 25.5854 9.38948 24.6013 7.55295C23.6171 5.71642 22.1945 4.15261 20.4604 3.00111C18.7262 1.84962 16.7346 1.14628 14.6631 0.953891C12.5916 0.761499 10.5049 1.08604 8.58908 1.89855C6.67328 2.71105 4.98806 3.98623 3.68383 5.61024C2.37961 7.23425 1.49695 9.15656 1.11463 11.2056C0.732306 13.2546 0.862211 15.3666 1.49275 17.3531C2.12329 19.3396 3.23484 21.1387 4.72821 22.5899C7.06363 24.8619 10.1869 26.1386 13.442 26.1516C16.6941 26.1646 19.8248 24.9152 22.1776 22.6658C22.233 22.628 22.282 22.5817 22.3229 22.5286C23.5181 21.3565 24.4679 19.9571 25.1165 18.4125C25.7661 16.8657 26.1006 15.2043 26.1004 13.5261ZM5.94072 21.987C6.60571 20.556 7.66184 19.3425 8.98727 18.4877C10.3331 17.6197 11.8998 17.1582 13.5002 17.1582C15.1007 17.1582 16.6673 17.6197 18.0132 18.4877C19.3386 19.3425 20.3947 20.556 21.0597 21.987C18.9836 23.8542 16.2916 24.8878 13.5002 24.8878C10.7089 24.8878 8.01685 23.8542 5.94072 21.987Z" fill="black" stroke="black" stroke-width="0.2"/>
</svg>
