<svg width="218" height="29" viewBox="0 0 218 29" fill="none" xmlns="http://www.w3.org/2000/svg">
<path d="M172.072 22.653C167.329 22.653 163.469 18.7657 163.469 13.9893C163.469 9.21286 167.329 5.3255 172.072 5.3255C176.815 5.3255 180.675 9.21286 180.675 13.9893C180.675 18.7657 176.815 22.653 172.072 22.653ZM172.072 7.18202C168.342 7.18202 165.304 10.2414 165.304 13.998C165.304 17.7546 168.342 20.8139 172.072 20.8139C175.802 20.8139 178.84 17.7546 178.84 13.998C178.84 10.2414 175.802 7.18202 172.072 7.18202Z" fill="#5D887C"/>
<path d="M172.072 26C168.939 26 165.987 24.7885 163.746 22.592L165.027 21.2672C166.922 23.1237 169.423 24.1522 172.072 24.1522C174.72 24.1522 177.221 23.1237 179.117 21.2672L180.398 22.592C178.156 24.7972 175.205 26.0087 172.072 26.0087V26Z" fill="#5D887C"/>
<path d="M174.469 0.104593L175.179 0.322494C176.321 0.671136 177.161 1.54274 177.516 2.59739C177.836 1.53403 178.649 0.627556 179.775 0.24405L180.476 0C181.108 1.87395 180.112 3.91351 178.251 4.54978L177.542 4.79383L176.832 4.57593C174.954 4.00067 173.889 1.99598 174.46 0.104593H174.469Z" fill="#5D887C"/>
<g filter="url(#filter0_d_43_111)">
<path d="M6.53592 19.9772H4V5.71774H6.90809L21.4312 17.2229V5.71774H23.9671V19.9772H21.0764L6.53592 8.39357V19.9859V19.9772Z" fill="#333333"/>
<path d="M26.728 15.2095V9.50049H29.0995V14.8957C29.0995 15.593 29.2553 16.1857 29.5582 16.6825C29.8611 17.1793 30.3372 17.5541 30.995 17.8156C31.6441 18.0771 32.5009 18.1991 33.5482 18.1991C34.2839 18.1991 35.1147 18.112 36.0495 17.9463C36.9842 17.7807 37.9709 17.5367 39.0182 17.2229C40.0654 16.9091 41.1386 16.5343 42.2465 16.1073V17.5716C41.6233 17.8766 40.9482 18.1904 40.2125 18.5042C39.4769 18.818 38.7066 19.1056 37.893 19.3583C37.0794 19.6198 36.2485 19.829 35.383 19.9859C34.5175 20.1428 33.652 20.23 32.7952 20.23C31.5229 20.23 30.4324 20.0644 29.5323 19.7244C28.6321 19.3932 27.9397 18.8528 27.455 18.112C26.9704 17.3711 26.728 16.4036 26.728 15.2008V15.2095ZM42.6013 9.50049V19.9772H40.5414L40.2299 17.7372V9.50049H42.6013Z" fill="#333333"/>
<path d="M58.0679 11.4703H44.3584V9.50051H58.0679V11.4703ZM46.9116 14.7999V9.84043L47.3703 6.82468H49.3004V14.6081C49.3004 15.4972 49.4216 16.2119 49.6553 16.7348C49.889 17.2578 50.3044 17.6326 50.9016 17.8505C51.4988 18.0771 52.3124 18.1817 53.351 18.1817C54.303 18.1817 55.1858 18.1207 55.9821 17.9899C56.7783 17.8679 57.54 17.7285 58.2584 17.5716L58.7171 19.4978C57.9727 19.6809 57.1159 19.8465 56.1638 20.0034C55.2118 20.1602 54.2078 20.23 53.1692 20.23C51.6979 20.23 50.5035 20.0557 49.586 19.6983C48.6686 19.3409 47.9935 18.7657 47.5608 17.9725C47.128 17.1794 46.9203 16.116 46.9203 14.7912L46.9116 14.7999Z" fill="#333333"/>
<path d="M60.7075 19.9772V9.50049H62.7847L63.079 12.4117V19.9859H60.7075V19.9772ZM70.8858 9.24773V11.4267C70.029 11.4267 69.2068 11.479 68.4278 11.5749C67.6488 11.6708 66.8612 11.8364 66.0823 12.063C65.3033 12.2896 64.4984 12.586 63.6848 12.9521C62.8713 13.3181 61.9971 13.7714 61.071 14.3118V12.9085C61.6423 12.4727 62.2741 12.0456 62.9751 11.6185C63.6762 11.1914 64.4378 10.7992 65.2687 10.4331C66.0996 10.067 66.9824 9.77941 67.9258 9.56151C68.8692 9.34361 69.8559 9.23901 70.8945 9.23901L70.8858 9.24773Z" fill="#333333"/>
<path d="M75.5595 5.16861V7.99261H73.188V5.16861H75.5595ZM73.188 19.9772V9.50049H75.5595V19.9772H73.188Z" fill="#333333"/>
<path d="M96.7906 16.1944C96.7906 16.9092 96.6521 17.5193 96.3752 18.0248C96.0982 18.5303 95.6308 18.9487 94.9644 19.2799C94.2979 19.6111 93.4065 19.8465 92.2727 20.0034C91.1475 20.1603 89.7281 20.23 88.0231 20.23C86.9412 20.23 85.8074 20.1864 84.6303 20.0905C83.4446 20.0034 82.3107 19.8726 81.2202 19.7157C80.1297 19.5588 79.1776 19.3845 78.3641 19.2015L78.7189 17.1096C79.3853 17.2665 80.1124 17.406 80.9 17.528C81.6876 17.65 82.5185 17.7633 83.3926 17.8592C84.2668 17.9551 85.1409 18.0335 86.0237 18.0858C86.9066 18.1381 87.7634 18.173 88.6116 18.173C89.832 18.173 90.8186 18.1381 91.5716 18.0597C92.3246 17.9812 92.9045 17.8679 93.3199 17.7023C93.7354 17.5367 94.0123 17.3275 94.1595 17.066C94.3153 16.8046 94.3845 16.4908 94.3845 16.1247C94.3845 15.593 94.2806 15.2008 94.0729 14.9393C93.8652 14.6778 93.5623 14.4948 93.1555 14.3728C92.7574 14.2508 92.2554 14.1636 91.6582 14.1113L83.5744 13.3966C82.3713 13.3094 81.3587 13.1351 80.5538 12.8649C79.7402 12.5947 79.1344 12.1938 78.7362 11.6621C78.3381 11.1304 78.1304 10.4244 78.1304 9.55281C78.1304 8.57661 78.416 7.79217 78.9786 7.19076C79.5498 6.58935 80.4759 6.15355 81.7655 5.88335C83.0551 5.61315 84.7601 5.47369 86.8719 5.47369C87.5643 5.47369 88.3087 5.49984 89.1049 5.54342C89.9012 5.59572 90.7148 5.65673 91.5543 5.74389C92.3938 5.83105 93.1988 5.92693 93.9864 6.04024C94.774 6.15355 95.4837 6.27557 96.1328 6.41503L95.7174 8.40229C95.1202 8.28026 94.4451 8.15824 93.6834 8.05365C92.9218 7.94905 92.1169 7.86189 91.2773 7.78345C90.4378 7.705 89.5896 7.64399 88.7501 7.5917C87.9105 7.5394 87.1143 7.52197 86.3526 7.52197C85.1323 7.52197 84.137 7.55683 83.3753 7.61784C82.605 7.67886 82.0165 7.79216 81.6097 7.94905C81.2029 8.10594 80.9173 8.31513 80.7701 8.56789C80.6144 8.82066 80.5451 9.12572 80.5451 9.4918C80.5451 9.95375 80.6576 10.3024 80.874 10.5464C81.099 10.7905 81.4279 10.9648 81.8607 11.0607C82.2934 11.1566 82.83 11.2524 83.4705 11.3309L91.3466 12.002C92.2034 12.0717 92.9737 12.1938 93.6488 12.3594C94.3239 12.525 94.8951 12.769 95.3625 13.0828C95.8299 13.3966 96.1761 13.8062 96.4184 14.3031C96.6608 14.8086 96.7819 15.4361 96.7819 16.1857L96.7906 16.1944Z" fill="#333333"/>
<path d="M98.9453 14.7301C98.9453 12.8213 99.6723 11.4268 101.118 10.5464C102.563 9.66612 104.796 9.23032 107.817 9.23032C110.837 9.23032 113.088 9.66612 114.524 10.5464C115.961 11.4268 116.688 12.8213 116.688 14.7301C116.688 16.639 115.97 18.0335 114.524 18.9139C113.079 19.7942 110.846 20.23 107.817 20.23C104.787 20.23 102.563 19.7942 101.118 18.9139C99.6723 18.0335 98.9453 16.639 98.9453 14.7301ZM101.317 14.7301C101.317 15.5407 101.525 16.2032 101.94 16.7174C102.355 17.2317 103.039 17.6064 103.983 17.8331C104.935 18.0597 106.207 18.1817 107.817 18.1817C109.427 18.1817 110.716 18.0684 111.66 17.8331C112.603 17.6064 113.278 17.2317 113.693 16.7174C114.109 16.2032 114.317 15.5407 114.317 14.7301C114.317 13.9196 114.109 13.2484 113.693 12.7429C113.278 12.2374 112.603 11.8713 111.66 11.6359C110.716 11.4006 109.435 11.2786 107.817 11.2786C106.198 11.2786 104.935 11.4006 103.983 11.6359C103.03 11.8713 102.355 12.2461 101.94 12.7429C101.525 13.2484 101.317 13.9108 101.317 14.7301Z" fill="#333333"/>
<path d="M121.587 4.2883V19.9772H119.216V4.2883H121.587Z" fill="#333333"/>
<path d="M124.356 15.2095V9.50049H126.728V14.8957C126.728 15.593 126.884 16.1857 127.187 16.6825C127.49 17.1793 127.966 17.5541 128.623 17.8156C129.273 18.0771 130.129 18.1991 131.177 18.1991C131.912 18.1991 132.743 18.112 133.678 17.9463C134.613 17.7807 135.599 17.5367 136.647 17.2229C137.694 16.9091 138.767 16.5343 139.875 16.1073V17.5716C139.252 17.8766 138.577 18.1904 137.841 18.5042C137.105 18.818 136.335 19.1056 135.521 19.3583C134.708 19.6198 133.877 19.829 133.011 19.9859C132.146 20.1428 131.28 20.23 130.424 20.23C129.151 20.23 128.061 20.0644 127.161 19.7244C126.261 19.3932 125.568 18.8528 125.083 18.112C124.599 17.3711 124.356 16.4036 124.356 15.2008V15.2095ZM140.23 9.50049V19.9772H138.17L137.858 17.7372V9.50049H140.23Z" fill="#333333"/>
<path d="M155.696 11.4703H141.987V9.50051H155.696V11.4703ZM144.54 14.7999V9.84043L144.999 6.82468H146.929V14.6081C146.929 15.4972 147.05 16.2119 147.284 16.7348C147.517 17.2578 147.933 17.6326 148.53 17.8505C149.127 18.0771 149.941 18.1817 150.979 18.1817C151.931 18.1817 152.814 18.1207 153.611 17.9899C154.407 17.8679 155.168 17.7285 155.887 17.5716L156.346 19.4978C155.601 19.6809 154.744 19.8465 153.792 20.0034C152.84 20.1602 151.836 20.23 150.798 20.23C149.326 20.23 148.132 20.0557 147.214 19.6983C146.297 19.3409 145.622 18.7657 145.189 17.9725C144.756 17.1794 144.549 16.116 144.549 14.7912L144.54 14.7999Z" fill="#333333"/>
<path d="M160.708 5.16861V7.99261H158.336V5.16861H160.708ZM158.336 19.9772V9.50049H160.708V19.9772H158.336Z" fill="#333333"/>
</g>
<path d="M184.076 19.6721V9.19543H186.153L186.448 11.4529V19.6721H184.076ZM199.82 13.9806V19.6721H197.448V14.2769C197.448 13.5622 197.301 12.9695 197.015 12.4814C196.73 11.9933 196.262 11.6185 195.622 11.3657C194.981 11.1043 194.151 10.9822 193.129 10.9822C191.97 10.9822 190.637 11.1565 189.139 11.5139C187.642 11.8713 186.075 12.3768 184.422 13.0305V11.5488C185.046 11.2437 185.721 10.9386 186.439 10.6249C187.157 10.3198 187.919 10.0409 188.724 9.78813C189.529 9.53536 190.36 9.33489 191.225 9.178C192.091 9.02111 192.974 8.95139 193.874 8.95139C195.12 8.95139 196.185 9.12571 197.076 9.46563C197.959 9.80556 198.643 10.346 199.11 11.0781C199.577 11.8103 199.82 12.7864 199.82 13.998V13.9806Z" fill="#333333"/>
<path d="M217 16.9092C217 17.6762 216.775 18.2776 216.316 18.7221C215.857 19.1579 215.122 19.4717 214.118 19.6547C213.105 19.8377 211.746 19.9249 210.05 19.9249C209.08 19.9249 208.137 19.89 207.211 19.8203C206.293 19.7506 205.428 19.6547 204.614 19.5414C203.801 19.4194 203.056 19.2974 202.381 19.1753L202.797 17.5454C203.515 17.6674 204.277 17.7895 205.082 17.9028C205.887 18.0161 206.717 18.1033 207.574 18.1643C208.431 18.2253 209.314 18.2601 210.214 18.2601C211.391 18.2601 212.309 18.2253 212.975 18.1555C213.641 18.0858 214.1 17.9551 214.369 17.7546C214.628 17.5629 214.767 17.2752 214.767 16.9004C214.767 16.5256 214.645 16.2206 214.412 16.0288C214.178 15.8371 213.806 15.6976 213.304 15.6017C212.802 15.5059 212.144 15.4274 211.339 15.3751L206.605 15.0788C205.618 15.0265 204.805 14.8957 204.147 14.704C203.489 14.5122 202.996 14.1985 202.676 13.7627C202.355 13.3269 202.191 12.7342 202.191 11.9846C202.191 11.1478 202.468 10.5116 203.022 10.0845C203.576 9.64868 204.407 9.35233 205.506 9.18673C206.605 9.02112 207.972 8.93396 209.608 8.93396C210.076 8.93396 210.604 8.95139 211.175 8.98626C211.746 9.02112 212.335 9.0647 212.94 9.10828C213.546 9.16058 214.135 9.21287 214.706 9.2826C215.277 9.35233 215.797 9.43078 216.255 9.50922L215.9 11.1391C215.139 11.0171 214.377 10.9125 213.616 10.8253C212.854 10.7382 212.101 10.6772 211.348 10.6336C210.604 10.59 209.851 10.5726 209.106 10.5726C207.946 10.5726 207.02 10.6074 206.337 10.6859C205.653 10.7643 205.16 10.8951 204.874 11.0955C204.588 11.296 204.441 11.5749 204.441 11.9497C204.441 12.3245 204.536 12.586 204.735 12.7777C204.926 12.9695 205.212 13.0915 205.584 13.1525C205.956 13.2135 206.389 13.2658 206.873 13.3094L211.815 13.6406C212.975 13.7104 213.944 13.8498 214.715 14.0677C215.485 14.2856 216.065 14.6168 216.446 15.0613C216.835 15.5059 217.026 16.1247 217.026 16.9004L217 16.9092Z" fill="#333333"/>
<defs>
<filter id="filter0_d_43_111" x="0" y="4.2883" width="164.708" height="23.9417" filterUnits="userSpaceOnUse" color-interpolation-filters="sRGB">
<feFlood flood-opacity="0" result="BackgroundImageFix"/>
<feColorMatrix in="SourceAlpha" type="matrix" values="0 0 0 0 0 0 0 0 0 0 0 0 0 0 0 0 0 0 127 0" result="hardAlpha"/>
<feOffset dy="4"/>
<feGaussianBlur stdDeviation="2"/>
<feComposite in2="hardAlpha" operator="out"/>
<feColorMatrix type="matrix" values="0 0 0 0 0 0 0 0 0 0 0 0 0 0 0 0 0 0 0.25 0"/>
<feBlend mode="normal" in2="BackgroundImageFix" result="effect1_dropShadow_43_111"/>
<feBlend mode="normal" in="SourceGraphic" in2="effect1_dropShadow_43_111" result="shape"/>
</filter>
</defs>
</svg>
