<svg width="25" height="25" viewBox="0 0 25 25" fill="none" xmlns="http://www.w3.org/2000/svg">
<path d="M20.335 6.765C20.3279 6.63722 20.2722 6.51699 20.1792 6.42909C20.0861 6.34119 19.963 6.29231 19.835 6.2925H17.25V5.5C17.25 4.87622 17.1271 4.25855 16.8884 3.68225C16.6497 3.10596 16.2998 2.58232 15.8587 2.14124C15.4177 1.70016 14.894 1.35028 14.3177 1.11157C13.7414 0.872862 13.1238 0.75 12.5 0.75C11.8762 0.75 11.2585 0.872862 10.6822 1.11157C10.1059 1.35028 9.5823 1.70016 9.14123 2.14124C8.70015 2.58232 8.35026 3.10596 8.11156 3.68225C7.87285 4.25855 7.74998 4.87622 7.74998 5.5V6.3025H5.16248C5.0345 6.30231 4.91132 6.35119 4.81831 6.43909C4.72529 6.52699 4.66952 6.64722 4.66248 6.775L3.68498 23.72C3.68089 23.7881 3.69079 23.8564 3.71407 23.9206C3.73736 23.9847 3.77354 24.0435 3.82039 24.0931C3.86723 24.1428 3.92374 24.1823 3.98645 24.2093C4.04915 24.2363 4.11672 24.2501 4.18498 24.25H20.815C20.8832 24.2501 20.9508 24.2363 21.0135 24.2093C21.0762 24.1823 21.1327 24.1428 21.1796 24.0931C21.2264 24.0435 21.2626 23.9847 21.2859 23.9206C21.3092 23.8564 21.3191 23.7881 21.315 23.72L20.335 6.765ZM8.74998 5.5C8.74998 5.00754 8.84698 4.51991 9.03543 4.06494C9.22389 3.60997 9.50011 3.19657 9.84833 2.84835C10.1966 2.50013 10.6099 2.22391 11.0649 2.03545C11.5199 1.847 12.0075 1.75 12.5 1.75C12.9924 1.75 13.4801 1.847 13.935 2.03545C14.39 2.22391 14.8034 2.50013 15.1516 2.84835C15.4999 3.19657 15.7761 3.60997 15.9645 4.06494C16.153 4.51991 16.25 5.00754 16.25 5.5V6.3025H8.74998V5.5ZM4.71498 23.25L5.63498 7.2925H7.74998V11.685C7.74998 11.8176 7.80266 11.9448 7.89643 12.0386C7.9902 12.1323 8.11737 12.185 8.24998 12.185C8.38259 12.185 8.50977 12.1323 8.60354 12.0386C8.6973 11.9448 8.74998 11.8176 8.74998 11.685V7.2925H16.25V11.685C16.25 11.8176 16.3027 11.9448 16.3964 12.0386C16.4902 12.1323 16.6174 12.185 16.75 12.185C16.8826 12.185 17.0098 12.1323 17.1035 12.0386C17.1973 11.9448 17.25 11.8176 17.25 11.685V7.2925H19.375L20.285 23.25H4.71498Z" fill="black"/>
</svg>
