<?xml version="1.0" encoding="utf-8"?>
<!-- Generator: Adobe Illustrator 26.3.1, SVG Export Plug-In . SVG Version: 6.00 Build 0)  -->
<svg version="1.1" id="Calque_1" xmlns="http://www.w3.org/2000/svg" xmlns:xlink="http://www.w3.org/1999/xlink" x="0px" y="0px"
	 viewBox="0 0 25 25" style="enable-background:new 0 0 25 25;" xml:space="preserve">
<path d="M20.5,6.8c0-0.2-0.1-0.3-0.2-0.4c-0.1-0.1-0.3-0.2-0.4-0.2c0,0,0,0,0,0l-2.5,0l0-0.7c0-0.6-0.1-1.3-0.4-1.9
	c-0.2-0.6-0.6-1.1-1-1.6c-0.4-0.5-1-0.8-1.6-1.1c-1.2-0.5-2.5-0.5-3.7,0c-0.6,0.2-1.1,0.6-1.6,1C8.7,2.5,8.3,3,8.1,3.6
	C7.8,4.2,7.7,4.8,7.7,5.5l0,0.7l-2.5,0C5,6.2,4.9,6.2,4.8,6.3C4.7,6.4,4.6,6.6,4.6,6.7L3.5,23.7c0,0.1,0,0.2,0,0.2
	c0,0.1,0.1,0.1,0.1,0.2c0.1,0.1,0.1,0.1,0.2,0.1c0.1,0,0.2,0,0.2,0.1l16.6,0.1c0.1,0,0.2,0,0.2,0c0.1,0,0.1-0.1,0.2-0.1
	s0.1-0.1,0.1-0.2c0-0.1,0-0.2,0-0.2L20.5,6.8z M7.8,12.1c0.2,0.2,0.6,0.2,0.8,0c0.1-0.1,0.2-0.3,0.2-0.4l0-4.3l7.3,0l0,4.3
	c0,0.2,0.1,0.3,0.2,0.4c0.2,0.2,0.6,0.2,0.8,0c0.1-0.1,0.2-0.3,0.2-0.4l0-4.3l1.9,0l0.8,15.8L4.8,23.1l1-15.8l1.9,0l0,4.3
	C7.7,11.8,7.7,12,7.8,12.1z M8.9,6.2l0-0.7c0-0.5,0.1-1,0.3-1.4C9.4,3.6,9.6,3.2,10,2.9c0.3-0.3,0.7-0.6,1.2-0.8
	c0.9-0.4,1.9-0.4,2.8,0c0.4,0.2,0.8,0.5,1.2,0.8c0.3,0.3,0.6,0.7,0.8,1.2c0.2,0.4,0.3,0.9,0.3,1.4l0,0.7L8.9,6.2z"/>
</svg>
